<svg xmlns="http://www.w3.org/2000/svg" viewBox="0 0 800 450" role="img" aria-label="Kirometer, your credits, your ghost, your desk"><rect width="800" height="450" fill="#1c0d33"/><circle cx="560" cy="215" r="230" fill="none" stroke="#3f245f"/><g transform="translate(359 42) scale(2.3)"><path d="M48 128V68C48 31 73 10 106 10s58 21 58 58v60l-22-14-18 15-19-15-19 15-18-15z" fill="#fff"/><ellipse cx="93" cy="64" rx="7" ry="12" fill="#190a2d" transform="rotate(12 93 64)"/><ellipse cx="122" cy="59" rx="7" ry="12" fill="#190a2d" transform="rotate(12 122 59)"/></g><text x="45" y="270" fill="#f8f3ff" font-family="system-ui,sans-serif" font-size="62" font-weight="650" letter-spacing="-2">Kirometer</text><text x="48" y="316" fill="#c6afe5" font-family="system-ui,sans-serif" font-size="20">Your Kiro day, at a glance.</text><rect x="48" y="365" width="700" height="17" rx="8.5" fill="#3f245f"/><rect x="48" y="365" width="478" height="17" rx="8.5" fill="#9147ff"/></svg>