<svg xmlns="http://www.w3.org/2000/svg" viewBox="0 0 96 96" fill="none" role="img" aria-label="Kirometer ghost enclosure"><g transform="translate(52 46)" stroke-linecap="round" stroke-linejoin="round"><path d="M0,-39 C20,-39 29,-34 29,-24 C29,-8 29,12 25,28 C23,34 20,41 16,41 C14,41 12,41 10,41 C6,41 3,36 1,33 C-3,36 -6,41 -10,41 C-12,41 -14,41 -16,41 C-25,41 -26,31 -24,25 C-31,29 -37,26 -37,21 C-37,15 -30,10 -29,-1 C-29,-14 -30,-27 -22,-34 C-16,-38 -7,-39 0,-39 Z" fill="#b8b1c2" fill-opacity=".20" stroke="#b8b1c2" stroke-width="6.8" stroke-opacity=".85"/><rect x="-22.2" y="-24.2" width="44.4" height="44.4" rx="6.2" fill="#b789ff" fill-opacity=".12" stroke="#b8b1c2" stroke-opacity=".7" stroke-width="4.8"/><path d="M-14 11H14" stroke="#b789ff" stroke-opacity=".28" stroke-width="4.8"/><path d="M-14 11H3" stroke="#b789ff" stroke-width="4.8"/></g></svg>