<svg xmlns="http://www.w3.org/2000/svg" viewBox="0 0 24 24" fill="none">
  <style>
.kirometer-mark { transform-origin:12px 12px; }
@media (min-width:48px) and (max-width:79px) { .kirometer-mark { transform:scale(0.5172413793); } }
@media (min-width:80px) { .kirometer-mark { transform:scale(0.6666666667); } }
</style>
  <g class="kirometer-mark">
    <g transform="translate(13 11.5)" stroke-linecap="round" stroke-linejoin="round">
      <path d="M0,-9.75 C5,-9.75 7.25,-8.5 7.25,-6 C7.25,-2 7.25,3 6.25,7 C5.75,8.5 5,10.25 4,10.25 H2.5 C1.5,10.25 .75,9 .25,8.25 C-.75,9 -1.5,10.25 -2.5,10.25 H-4 C-6.25,10.25 -6.5,7.75 -6,6.25 C-7.75,7.25 -9.25,6.5 -9.25,5.25 C-9.25,3.75 -7.5,2.5 -7.25,-.25 C-7.25,-3.5 -7.5,-6.75 -5.5,-8.5 C-4,-9.5 -1.75,-9.75 0,-9.75 Z" fill="#938f9b" fill-opacity="0.2" stroke="#938f9b" stroke-width="1.8"/>
      <rect x="-5.55" y="-6.05" width="11.1" height="11.1" rx="1.55" stroke="#938f9b" stroke-opacity="0.55" stroke-width="1.4"/>
      <path d="M-3.5 2.75H3.5" stroke="#8e48ff" stroke-opacity="0.28" stroke-width="1.4"/>
      <path d="M-3.5 2.75H.75" stroke="#8e48ff" stroke-width="1.4"/>
    </g>
  </g>
</svg>
